<svg xmlns="http://www.w3.org/2000/svg" width="211" height="17" viewBox="0 0 211 17">
    <g fill="none" fill-rule="evenodd">
        <path fill="#FAB72E" d="M2.376 11.169l1.072 1.047-.97.948-1.072-1.048.97-.947zM8.635.129l.04.04 1.032 1.01L11.01 2.45 9.937 3.5 8.635 2.225 4.81 5.961 3.738 4.913 8.635.13zM0 8.566l2.376-2.32L3.45 7.291 2.146 8.565 5.969 12.3l-1.072 1.048-3.824-3.735L.041 8.605 0 8.565zm13.82 1.273l1.304-1.273L11.3 4.83l1.073-1.049 3.823 3.736 1.033 1.008.04.04-2.376 2.32-1.072-1.047zm-5.185 5.066l3.823-3.735 1.073 1.047L8.635 17l-.041-.04-1.032-1.008-1.303-1.273 1.073-1.047 1.303 1.272zm6.259-8.943L13.82 4.913l.97-.948 1.073 1.049-.97.947zm-2.521 7.67l.97.948-1.073 1.048-.97-.948 1.073-1.048zM5.969 2.451L4.897 3.497l-.97-.947L5 1.503l.97.947zm1.448 8.718l1.073 1.047L5 15.626 3.926 14.58l3.491-3.41zm2.435-.283L8.78 9.838l3.678-3.594 1.073 1.048-3.679 3.594zm0-4.925L8.78 4.913l3.49-3.41 1.073 1.048-3.49 3.41zm-2.435.283L8.49 7.292l-3.679 3.594-1.072-1.049 3.678-3.593zm-.085 2.462L11.01 12.3l-1.072 1.048-3.679-3.594 1.073-1.048zm-1.363-1.33L4.897 8.422l-3.49-3.41 1.071-1.048 3.491 3.41zm5.041 0L9.938 8.422 6.258 4.83l1.074-1.048 3.678 3.593zm1.363 1.33l3.49 3.41-1.073 1.048-3.49-3.41 1.073-1.048z"/>
        <path fill="#FFF" d="M23.13 6.467c-.115-.347-.221-.573-.355-.667-.106-.065-.298-.085-.385-.085-.096 0-.153-.008-.153-.084 0-.066.076-.084.21-.084.5 0 1.029.027 1.116.027.087 0 .51-.027 1.067-.027.135 0 .203.027.203.084 0 .076-.078.084-.174.084-.076 0-.173 0-.24.038-.087.038-.106.104-.106.207 0 .122.096.441.212.864.163.62 1.057 3.466 1.23 3.992h.029l1.865-4.903c.096-.263.164-.339.24-.339.106 0 .154.141.28.442l2 4.734h.028c.173-.63.942-3.109 1.279-4.208.067-.215.096-.413.096-.545 0-.15-.087-.282-.462-.282-.096 0-.163-.028-.163-.084 0-.066.077-.084.221-.084.51 0 .914.027 1 .027.068 0 .481-.027.798-.027.106 0 .173.018.173.075 0 .065-.048.093-.135.093-.096 0-.23.01-.336.048-.23.084-.336.46-.539.995-.441 1.184-1.451 4.17-1.922 5.58-.106.328-.154.44-.28.44-.096 0-.153-.112-.297-.46l-2-4.715h-.019c-.183.48-1.462 3.814-1.875 4.678-.183.385-.231.498-.346.498-.097 0-.135-.104-.222-.348L23.13 6.467zm10.739 2.63c0-1.607 1.086-3.681 3.971-3.681 2.394 0 3.884 1.361 3.884 3.512 0 2.15-1.538 3.85-3.98 3.85-2.76 0-3.875-2.018-3.875-3.681zm10.464-.827c0-1.427 0-1.69-.02-1.99-.019-.32-.096-.47-.413-.536a2.002 2.002 0 0 0-.376-.028c-.105 0-.163-.02-.163-.084 0-.066.067-.085.212-.085.51 0 1.115.027 1.317.027.327 0 1.058-.027 1.356-.027.605 0 1.25.056 1.769.404.269.179.654.657.654 1.286 0 .696-.298 1.334-1.27 2.104.857 1.052 1.52 1.888 2.087 2.47.538.546.933.611 1.076.64.107.018.193.027.27.027.077 0 .116.029.116.075 0 .076-.068.095-.183.095h-.913c-.54 0-.78-.048-1.03-.179-.413-.217-.778-.658-1.316-1.38-.386-.517-.827-1.156-.953-1.297-.048-.056-.105-.066-.172-.066l-.837-.018c-.048 0-.077.018-.077.074v.132c0 .874 0 1.616.048 2.01.029.272.087.48.375.517.144.018.356.037.471.037.077 0 .116.029.116.075 0 .066-.067.095-.193.095-.557 0-1.269-.029-1.413-.029-.183 0-.788.029-1.173.029-.125 0-.192-.029-.192-.095 0-.046.038-.075.153-.075.145 0 .26-.019.346-.037.193-.038.24-.245.28-.517.048-.394.048-1.136.048-2V8.27zm9.943 1.653c0 1.203 0 1.85.201 2.02.164.14.414.207 1.164.207.51 0 .884-.01 1.125-.264.116-.122.23-.384.25-.563.01-.084.029-.14.106-.14.067 0 .076.046.076.159 0 .103-.067.808-.144 1.08-.057.207-.106.253-.605.253-.693 0-1.193-.019-1.625-.027-.433-.02-.779-.029-1.173-.029-.106 0-.318 0-.548.01-.222 0-.472.019-.663.019-.126 0-.193-.029-.193-.094 0-.048.038-.076.154-.076.144 0 .26-.019.346-.037.192-.038.24-.244.279-.517.048-.394.048-1.136.048-2V8.27c0-1.428 0-1.69-.02-1.99-.019-.32-.095-.47-.413-.536a1.44 1.44 0 0 0-.317-.028c-.106 0-.163-.02-.163-.084 0-.066.067-.085.211-.085.452 0 1.057.027 1.317.027.231 0 .932-.027 1.307-.027.136 0 .203.019.203.085 0 .065-.058.084-.174.084-.105 0-.259.01-.374.028-.26.047-.337.207-.357.535-.018.3-.018.563-.018 1.991v1.653zM59.77 8.27c0-1.428 0-1.69-.02-1.99-.018-.32-.095-.47-.412-.536a1.994 1.994 0 0 0-.375-.028c-.106 0-.164-.02-.164-.084 0-.066.067-.085.212-.085.51 0 1.115.027 1.384.027.298 0 .904-.027 1.48-.027 1.203 0 2.808 0 3.856 1.07.481.49.933 1.269.933 2.386 0 1.183-.51 2.086-1.049 2.62-.441.442-1.441 1.109-3.22 1.109-.346 0-.74-.028-1.106-.057-.365-.027-.701-.056-.942-.056-.106 0-.318 0-.547.01-.222 0-.472.019-.664.019-.125 0-.193-.029-.193-.094 0-.048.039-.076.154-.076.144 0 .26-.019.346-.037.193-.038.241-.244.279-.517.048-.394.048-1.136.048-2V8.27zm13.614 0c0-1.427 0-1.69-.02-1.99-.02-.32-.096-.47-.413-.536a2.002 2.002 0 0 0-.376-.028c-.105 0-.163-.02-.163-.084 0-.066.068-.085.212-.085.51 0 1.115.027 1.317.027.327 0 1.058-.027 1.356-.027.605 0 1.25.056 1.769.404.269.179.654.657.654 1.286 0 .696-.298 1.334-1.27 2.104.856 1.052 1.52 1.888 2.087 2.47.538.546.932.611 1.076.64.107.018.193.027.27.027.077 0 .116.029.116.075 0 .076-.068.095-.183.095h-.914c-.538 0-.778-.048-1.028-.179-.414-.217-.78-.658-1.317-1.38-.386-.517-.828-1.156-.953-1.297-.048-.056-.105-.066-.173-.066l-.836-.018c-.048 0-.077.018-.077.074v.132c0 .874 0 1.616.048 2.01.029.272.087.48.375.517.144.018.356.037.47.037.078 0 .117.029.117.075 0 .066-.068.095-.193.095-.558 0-1.269-.029-1.413-.029-.183 0-.788.029-1.173.029-.125 0-.193-.029-.193-.095 0-.046.039-.075.154-.075.144 0 .26-.019.346-.037.193-.038.24-.245.28-.517.048-.394.048-1.136.048-2V8.27zm8.74 0c0-1.428 0-1.69-.018-1.99-.02-.32-.096-.47-.414-.536a1.986 1.986 0 0 0-.375-.029c-.106 0-.164-.018-.164-.084 0-.065.068-.084.212-.084.26 0 .539.009.779.009.25.01.471.018.605.018.308 0 2.222 0 2.405-.008.182-.02.336-.038.413-.057.048-.009.106-.037.154-.037.047 0 .058.037.058.084 0 .066-.048.178-.077.61-.01.095-.03.508-.049.62-.01.048-.029.104-.096.104s-.087-.048-.087-.132a.988.988 0 0 0-.057-.338c-.068-.17-.163-.282-.645-.338a31.198 31.198 0 0 0-1.364-.038c-.049 0-.068.028-.068.094v2.377c0 .065.01.103.068.103.21 0 1.317 0 1.538-.018.23-.02.375-.048.46-.141.068-.076.107-.123.155-.123.039 0 .067.02.067.075 0 .056-.038.207-.076.686-.01.188-.04.564-.04.63 0 .075 0 .178-.085.178-.068 0-.087-.037-.087-.085-.01-.093-.01-.216-.038-.338-.048-.188-.183-.328-.539-.367a32.056 32.056 0 0 0-1.365-.027c-.048 0-.058.037-.058.093v.743c0 .319-.01 1.183 0 1.456.02.648.173.788 1.154.788.25 0 .653 0 .904-.112.249-.114.365-.31.432-.695.02-.104.039-.141.106-.141.076 0 .076.075.076.168 0 .217-.076.855-.124 1.043-.067.244-.153.244-.519.244-.721 0-1.25-.019-1.663-.027-.414-.02-.712-.029-1-.029-.107 0-.318 0-.548.01-.222 0-.471.019-.664.019-.125 0-.192-.029-.192-.094 0-.048.038-.076.153-.076.145 0 .26-.019.347-.037.192-.038.24-.244.279-.517.048-.394.048-1.136.048-2V8.27zm6.187 4.265c-.154-.066-.183-.113-.183-.32 0-.517.038-1.08.049-1.23.009-.141.037-.244.115-.244.086 0 .096.085.096.159 0 .123.038.32.087.48.211.694.778.948 1.374.948.866 0 1.289-.573 1.289-1.071 0-.46-.145-.892-.943-1.502l-.442-.338C88.695 8.609 88.33 7.95 88.33 7.19c0-1.033.884-1.775 2.221-1.775.624 0 1.03.094 1.28.16.086.019.133.046.133.112 0 .123-.039.396-.039 1.128 0 .206-.028.281-.105.281-.067 0-.096-.056-.096-.168 0-.085-.048-.376-.25-.62-.144-.179-.423-.46-1.048-.46-.712 0-1.144.403-1.144.967 0 .431.221.76 1.019 1.352l.269.197c1.164.855 1.577 1.503 1.577 2.396a1.88 1.88 0 0 1-.904 1.634c-.48.3-1.019.385-1.529.385-.557 0-.99-.066-1.403-.244zm5.745-3.438c0-1.607 1.086-3.681 3.971-3.681 2.394 0 3.884 1.361 3.884 3.512 0 2.15-1.538 3.85-3.98 3.85-2.76 0-3.875-2.018-3.875-3.681zm10.182-.827c0-1.428 0-1.69-.018-1.99-.02-.32-.097-.47-.414-.536a1.986 1.986 0 0 0-.375-.029c-.106 0-.163-.018-.163-.084 0-.065.067-.084.21-.084.51 0 1.116.027 1.405.027.23 0 .836-.027 1.183-.027.143 0 .211.019.211.084 0 .066-.058.084-.154.084-.106 0-.164.01-.278.03-.26.046-.338.206-.356.534-.02.3-.02.563-.02 1.991v1.315c0 1.362.28 1.935.75 2.31.433.348.876.386 1.202.386.423 0 .943-.131 1.327-.507.528-.517.557-1.362.557-2.33V8.27c0-1.428 0-1.69-.02-1.99-.018-.32-.095-.47-.412-.536a1.88 1.88 0 0 0-.346-.029c-.106 0-.163-.018-.163-.084 0-.065.066-.084.201-.084.491 0 1.096.027 1.106.027.115 0 .72-.027 1.096-.027.134 0 .202.019.202.084 0 .066-.058.084-.174.084-.105 0-.163.01-.279.03-.259.046-.336.206-.355.534-.019.3-.019.563-.019 1.991v1.005c0 1.043-.106 2.152-.913 2.827-.683.573-1.376.677-2 .677-.51 0-1.433-.029-2.135-.648-.49-.432-.856-1.127-.856-2.49v-1.37zm9.539 0c0-1.427 0-1.69-.02-1.99-.019-.32-.096-.47-.413-.536a2.002 2.002 0 0 0-.376-.028c-.105 0-.163-.02-.163-.084 0-.066.068-.085.212-.085.51 0 1.115.027 1.317.027.327 0 1.058-.027 1.356-.027.605 0 1.25.056 1.769.404.269.179.654.657.654 1.286 0 .696-.298 1.334-1.27 2.104.857 1.052 1.52 1.888 2.087 2.47.538.546.933.611 1.076.64.107.018.193.027.27.027.077 0 .116.029.116.075 0 .076-.068.095-.183.095h-.914c-.538 0-.778-.048-1.028-.179-.414-.217-.78-.658-1.317-1.38-.386-.517-.827-1.156-.953-1.297-.048-.056-.105-.066-.173-.066l-.836-.018c-.048 0-.077.018-.077.074v.132c0 .874 0 1.616.048 2.01.029.272.087.48.375.517.144.018.356.037.47.037.078 0 .117.029.117.075 0 .066-.067.095-.193.095-.558 0-1.269-.029-1.413-.029-.183 0-.788.029-1.173.029-.125 0-.192-.029-.192-.095 0-.046.038-.075.153-.075.145 0 .26-.019.346-.037.193-.038.24-.245.28-.517.048-.394.048-1.136.048-2V8.27zm8.133 3.485c-.942-.808-1.192-1.86-1.192-2.77 0-.639.202-1.748 1.124-2.574.693-.62 1.606-.995 3.039-.995.596 0 .951.037 1.394.093.365.047.673.131.962.16.105.01.143.056.143.112 0 .076-.028.189-.047.517-.02.31-.01.827-.03 1.015-.009.14-.028.216-.115.216-.077 0-.096-.075-.096-.207a1.322 1.322 0 0 0-.374-.864c-.319-.328-1.068-.583-1.953-.583-.836 0-1.384.207-1.808.583-.7.629-.883 1.521-.883 2.432 0 2.236 1.74 3.344 3.027 3.344.857 0 1.376-.093 1.76-.526.164-.178.29-.45.327-.62.03-.15.049-.188.125-.188.067 0 .087.066.087.141 0 .113-.115.93-.212 1.25-.048.16-.086.206-.25.272-.384.15-1.115.216-1.73.216-1.317 0-2.423-.282-3.298-1.024zm8.379-3.485c0-1.428 0-1.69-.02-1.99-.02-.32-.096-.47-.413-.536a1.986 1.986 0 0 0-.375-.029c-.106 0-.164-.018-.164-.084 0-.065.067-.084.212-.084.26 0 .538.009.778.009.25.01.472.018.606.018.308 0 2.221 0 2.404-.008.183-.02.337-.038.413-.057.048-.009.106-.037.154-.037s.057.037.057.084c0 .066-.047.178-.076.61-.01.095-.029.508-.048.62-.01.048-.03.104-.097.104-.066 0-.086-.048-.086-.132a.988.988 0 0 0-.057-.338c-.068-.17-.163-.282-.645-.338a31.198 31.198 0 0 0-1.364-.038c-.049 0-.068.028-.068.094v2.377c0 .065.01.103.068.103.21 0 1.316 0 1.537-.018.231-.02.375-.048.462-.141.067-.076.105-.123.153-.123.04 0 .068.02.068.075 0 .056-.039.207-.076.686-.01.188-.04.564-.04.63 0 .075 0 .178-.086.178-.067 0-.086-.037-.086-.085-.01-.093-.01-.216-.039-.338-.047-.188-.182-.328-.538-.367a32.056 32.056 0 0 0-1.366-.027c-.047 0-.057.037-.057.093v.743c0 .319-.01 1.183 0 1.456.019.648.173.788 1.154.788.25 0 .653 0 .903-.112.25-.114.366-.31.432-.695.02-.104.04-.141.107-.141.076 0 .076.075.076.168 0 .217-.076.855-.124 1.043-.067.244-.154.244-.52.244-.72 0-1.25-.019-1.662-.027-.414-.02-.712-.029-1-.029-.107 0-.319 0-.548.01-.222 0-.472.019-.664.019-.125 0-.193-.029-.193-.094 0-.048.039-.076.154-.076.144 0 .26-.019.346-.037.193-.038.241-.244.28-.517.048-.394.048-1.136.048-2V8.27zm6.185 4.265c-.153-.066-.182-.113-.182-.32 0-.517.038-1.08.047-1.23.01-.141.039-.244.117-.244.086 0 .095.085.095.159 0 .123.039.32.087.48.212.694.779.948 1.375.948.865 0 1.288-.573 1.288-1.071 0-.46-.145-.892-.942-1.502l-.442-.338c-1.058-.808-1.424-1.466-1.424-2.227 0-1.033.885-1.775 2.222-1.775.624 0 1.029.094 1.279.16.086.019.134.046.134.112 0 .123-.04.396-.04 1.128 0 .206-.027.281-.104.281-.068 0-.097-.056-.097-.168 0-.085-.048-.376-.25-.62-.143-.179-.423-.46-1.048-.46-.71 0-1.144.403-1.144.967 0 .431.222.76 1.02 1.352l.269.197c1.163.855 1.577 1.503 1.577 2.396a1.88 1.88 0 0 1-.904 1.634c-.481.3-1.02.385-1.529.385-.557 0-.99-.066-1.404-.244zm10.74-4.265c0-1.428 0-1.69-.02-1.99-.02-.32-.116-.48-.327-.527a1.428 1.428 0 0 0-.346-.038c-.097 0-.154-.018-.154-.093 0-.056.077-.075.23-.075.366 0 .972.027 1.25.027.24 0 .809-.027 1.174-.027.125 0 .202.019.202.075 0 .075-.058.093-.154.093s-.173.01-.289.03c-.26.046-.336.206-.355.534-.02.3-.02.563-.02 1.991v1.654c0 .91 0 1.653.039 2.057.029.253.096.422.385.46.134.018.346.037.49.037.106 0 .154.028.154.076 0 .065-.077.094-.183.094-.634 0-1.24-.029-1.5-.029-.221 0-.827.029-1.211.029-.126 0-.193-.029-.193-.094 0-.048.038-.076.154-.076.145 0 .26-.019.346-.037.192-.038.25-.198.28-.47.047-.394.047-1.137.047-2.047V8.27zm5.772 3.1c.02.732.145.977.337 1.043.163.056.346.065.5.065.106 0 .163.019.163.076 0 .075-.086.094-.22.094-.626 0-1.01-.029-1.193-.029-.086 0-.538.029-1.038.029-.126 0-.212-.01-.212-.094 0-.057.058-.076.154-.076.125 0 .298-.009.433-.047.25-.074.288-.347.298-1.165l.087-5.532c0-.187.028-.318.124-.318.106 0 .193.121.356.29a147.3 147.3 0 0 0 2.98 2.987c.655.639 1.952 1.991 2.116 2.141h.048l-.096-4.216c-.01-.574-.097-.753-.327-.845-.144-.057-.375-.057-.51-.057-.115 0-.154-.028-.154-.085 0-.075.106-.084.25-.084.5 0 .962.027 1.163.027.106 0 .472-.027.943-.027.125 0 .22.009.22.084 0 .057-.057.085-.172.085-.097 0-.173 0-.288.028-.27.075-.347.272-.357.799l-.105 5.926c0 .206-.038.291-.125.291-.105 0-.221-.104-.327-.206-.606-.564-1.836-1.794-2.836-2.762-1.048-1.014-2.115-2.16-2.288-2.338h-.029l.105 3.916zm8.464 1.165c-.154-.066-.183-.113-.183-.32 0-.517.038-1.08.048-1.23.01-.141.038-.244.116-.244.086 0 .095.085.095.159 0 .123.039.32.087.48.212.694.78.948 1.375.948.865 0 1.288-.573 1.288-1.071 0-.46-.144-.892-.942-1.502l-.442-.338c-1.058-.808-1.424-1.466-1.424-2.227 0-1.033.885-1.775 2.222-1.775.624 0 1.029.094 1.28.16.085.019.133.046.133.112 0 .123-.039.396-.039 1.128 0 .206-.028.281-.105.281-.068 0-.097-.056-.097-.168 0-.085-.047-.376-.25-.62-.143-.179-.422-.46-1.047-.46-.712 0-1.145.403-1.145.967 0 .431.222.76 1.02 1.352l.269.197c1.164.855 1.577 1.503 1.577 2.396a1.88 1.88 0 0 1-.904 1.634c-.481.3-1.019.385-1.529.385-.557 0-.99-.066-1.403-.244zm8.245-6.462l-1.433.037c-.558.02-.79.065-.933.272a1.111 1.111 0 0 0-.163.329c-.02.076-.048.113-.106.113-.068 0-.087-.047-.087-.15 0-.15.183-1.005.202-1.08.029-.123.058-.179.115-.179.078 0 .174.094.414.113.28.028.644.047.962.047h3.807c.308 0 .52-.028.664-.047.143-.028.22-.047.258-.047.068 0 .078.056.078.197 0 .198-.029.846-.029 1.09-.01.094-.029.15-.086.15-.078 0-.097-.047-.106-.187l-.01-.104c-.02-.245-.279-.508-1.134-.526l-1.212-.028v3.85c0 .864 0 1.607.049 2.01.029.263.086.47.374.508.135.019.346.037.49.037.106 0 .154.028.154.075 0 .066-.077.094-.182.094-.635 0-1.24-.028-1.51-.028-.221 0-.827.028-1.21.028-.126 0-.194-.028-.194-.094 0-.047.039-.075.154-.075.144 0 .26-.018.347-.037.192-.037.249-.245.279-.517.048-.394.048-1.137.048-2V6.072zm6.465 2.197c0-1.428 0-1.69-.019-1.99-.02-.32-.116-.48-.327-.527a1.418 1.418 0 0 0-.346-.038c-.097 0-.154-.018-.154-.093 0-.056.077-.075.23-.075.366 0 .971.027 1.25.027.24 0 .808-.027 1.174-.027.124 0 .201.019.201.075 0 .075-.058.093-.153.093-.096 0-.174.01-.289.03-.26.046-.336.206-.355.534-.02.3-.02.563-.02 1.991v1.654c0 .91 0 1.653.039 2.057.029.253.096.422.385.46.134.018.345.037.49.037.106 0 .153.028.153.076 0 .065-.076.094-.182.094-.635 0-1.24-.029-1.5-.029-.222 0-.827.029-1.211.029-.126 0-.193-.029-.193-.094 0-.048.038-.076.154-.076.145 0 .26-.019.346-.037.192-.038.25-.198.28-.47.047-.394.047-1.137.047-2.047V8.27zm6.471-2.197l-1.432.037c-.558.02-.789.065-.934.272a1.111 1.111 0 0 0-.162.329c-.02.076-.049.113-.107.113-.067 0-.086-.047-.086-.15 0-.15.183-1.005.202-1.08.029-.123.058-.179.115-.179.078 0 .174.094.414.113.28.028.644.047.961.047h3.808c.307 0 .52-.028.663-.047.144-.028.222-.047.26-.047.067 0 .077.056.077.197 0 .198-.03.846-.03 1.09-.009.094-.028.15-.085.15-.078 0-.097-.047-.106-.187l-.01-.104c-.02-.245-.279-.508-1.135-.526l-1.211-.028v3.85c0 .864 0 1.607.048 2.01.03.263.087.47.375.508.134.019.346.037.49.037.106 0 .154.028.154.075 0 .066-.077.094-.183.094-.634 0-1.24-.028-1.51-.028-.22 0-.826.028-1.21.028-.126 0-.193-.028-.193-.094 0-.047.038-.075.154-.075.145 0 .26-.018.346-.037.193-.037.25-.245.28-.517.047-.394.047-1.137.047-2V6.072zm6.322 2.197c0-1.428 0-1.69-.019-1.99-.02-.32-.096-.47-.414-.536a1.986 1.986 0 0 0-.375-.029c-.105 0-.163-.018-.163-.084 0-.065.068-.084.211-.084.51 0 1.115.027 1.405.027.23 0 .836-.027 1.182-.027.144 0 .212.019.212.084 0 .066-.058.084-.154.084-.106 0-.164.01-.279.03-.26.046-.337.206-.356.534-.02.3-.02.563-.02 1.991v1.315c0 1.362.28 1.935.751 2.31.432.348.875.386 1.202.386.423 0 .942-.131 1.326-.507.53-.517.558-1.362.558-2.33V8.27c0-1.428 0-1.69-.02-1.99-.018-.32-.095-.47-.412-.536a1.88 1.88 0 0 0-.347-.029c-.106 0-.163-.018-.163-.084 0-.065.067-.084.202-.084.49 0 1.096.027 1.106.027.115 0 .72-.027 1.096-.027.135 0 .201.019.201.084 0 .066-.058.084-.173.084-.105 0-.164.01-.279.03-.259.046-.336.206-.355.534-.02.3-.02.563-.02 1.991v1.005c0 1.043-.105 2.152-.913 2.827-.682.573-1.375.677-2 .677-.51 0-1.432-.029-2.134-.648-.49-.432-.856-1.127-.856-2.49v-1.37zm10.976-2.197l-1.432.037c-.559.02-.79.065-.934.272a1.111 1.111 0 0 0-.163.329c-.02.076-.048.113-.106.113-.068 0-.087-.047-.087-.15 0-.15.183-1.005.202-1.08.029-.123.058-.179.116-.179.077 0 .173.094.413.113.28.028.645.047.962.047h3.807c.308 0 .52-.028.664-.047.143-.028.22-.047.258-.047.068 0 .078.056.078.197 0 .198-.029.846-.029 1.09-.01.094-.029.15-.086.15-.078 0-.097-.047-.106-.187l-.01-.104c-.02-.245-.279-.508-1.134-.526l-1.212-.028v3.85c0 .864 0 1.607.049 2.01.029.263.086.47.374.508.135.019.346.037.49.037.107 0 .154.028.154.075 0 .066-.076.094-.182.094-.635 0-1.24-.028-1.51-.028-.221 0-.827.028-1.21.028-.126 0-.194-.028-.194-.094 0-.047.039-.075.154-.075.145 0 .26-.018.347-.037.192-.037.25-.245.279-.517.048-.394.048-1.137.048-2V6.072zm6.528 2.197c0-1.428 0-1.69-.019-1.99-.02-.32-.096-.47-.414-.536a1.986 1.986 0 0 0-.375-.029c-.105 0-.163-.018-.163-.084 0-.065.067-.084.211-.084.26 0 .539.009.779.009.25.01.471.018.605.018.309 0 2.222 0 2.405-.008.183-.02.336-.038.413-.057.048-.009.106-.037.154-.037s.058.037.058.084c0 .066-.048.178-.077.61-.01.095-.029.508-.049.62-.009.048-.029.104-.096.104s-.086-.048-.086-.132a.988.988 0 0 0-.058-.338c-.068-.17-.163-.282-.644-.338a31.198 31.198 0 0 0-1.365-.038c-.048 0-.067.028-.067.094v2.377c0 .065.01.103.067.103.211 0 1.317 0 1.538-.018.23-.02.375-.048.461-.141.068-.076.106-.123.154-.123.04 0 .067.02.067.075 0 .056-.038.207-.076.686-.01.188-.039.564-.039.63 0 .075 0 .178-.086.178-.068 0-.086-.037-.086-.085-.01-.093-.01-.216-.039-.338-.048-.188-.183-.328-.539-.367a32.056 32.056 0 0 0-1.365-.027c-.048 0-.057.037-.057.093v.743c0 .319-.01 1.183 0 1.456.019.648.172.788 1.153.788.25 0 .654 0 .904-.112.25-.114.365-.31.432-.695.02-.104.04-.141.107-.141.076 0 .076.075.076.168 0 .217-.076.855-.124 1.043-.068.244-.154.244-.52.244-.72 0-1.25-.019-1.663-.027-.414-.02-.712-.029-1-.029-.106 0-.318 0-.548.01-.222 0-.471.019-.663.019-.126 0-.193-.029-.193-.094 0-.048.038-.076.154-.076.145 0 .26-.019.346-.037.192-.038.24-.244.28-.517.047-.394.047-1.136.047-2V8.27zM40.377 9.275c0-2.103-1.239-3.41-2.816-3.41-1.106 0-2.365.602-2.365 2.94 0 1.955 1.105 3.504 2.951 3.504.674 0 2.23-.32 2.23-3.034zm5.09-.263c0 .104.019.141.086.17.202.065.491.093.731.093.384 0 .51-.037.682-.16.29-.205.568-.638.568-1.408 0-1.334-.904-1.72-1.471-1.72-.24 0-.413.01-.51.038-.067.02-.086.057-.086.132v2.855zm15.505.292c0 .995.01 1.719.019 1.897.01.235.029.61.106.714.125.179.5.376 1.26.376.98 0 1.634-.189 2.21-.677.616-.517.808-1.371.808-2.339 0-1.192-.51-1.962-.923-2.347-.884-.827-1.98-.94-2.73-.94-.192 0-.548.028-.625.066-.087.037-.115.084-.115.188-.01.319-.01 1.136-.01 1.878v1.184zm13.546-.292c0 .104.019.141.086.17.202.065.491.093.731.093.384 0 .51-.037.682-.16.29-.205.568-.638.568-1.408 0-1.334-.903-1.72-1.471-1.72-.24 0-.413.01-.51.038-.067.02-.086.057-.086.132v2.855zm26.047.263c0-2.103-1.24-3.41-2.817-3.41-1.106 0-2.365.602-2.365 2.94 0 1.955 1.105 3.504 2.952 3.504.673 0 2.23-.32 2.23-3.034zm14.346-.263c0 .104.019.141.086.17.202.065.491.093.731.093.384 0 .51-.037.682-.16.29-.205.568-.638.568-1.408 0-1.334-.903-1.72-1.471-1.72-.24 0-.413.01-.51.038-.067.02-.086.057-.086.132v2.855z"/>
    </g>
</svg>
