<svg xmlns="http://www.w3.org/2000/svg" width="52" height="15" viewBox="0 0 52 15">
    <g fill="none" fill-rule="evenodd">
        <path fill="#FAB72E" d="M2.201 9.815l.994.932-.898.843-.995-.933.9-.842zM8.001 0l.037.035.956.897L10.2 2.063l-.994.932L8 1.863 4.457 5.185l-.993-.932L8 0zM0 7.5l2.201-2.063.994.932-1.207 1.13 3.542 3.322-.993.932L.994 8.432l-.956-.896L0 7.5zm12.805 1.132L14.012 7.5 10.47 4.179l.993-.932 3.543 3.321.956.897L16 7.5l-2.201 2.063-.994-.931zM8 13.136l3.543-3.32.994.93L8 15l-.038-.036-.956-.895-1.207-1.133.994-.93L8 13.135zM13.8 5.185l-.994-.932.898-.843.995.933-.9.842zm-2.336 6.82l.899.842-.994.932-.898-.843.993-.931zM5.53 2.063l-.993.932-.9-.842.995-.932.898.842zm1.342 7.752l.994.932-3.234 3.032-.994-.932 3.234-3.032zm2.256-.251l-.993-.932 3.408-3.196.993.932-3.408 3.196zm0-4.38l-.993-.93 3.233-3.033.994.932-3.234 3.032zm-2.256.252l.994.933-3.409 3.195-.993-.933 3.408-3.195zm-.08 2.19l3.409 3.195-.994.932L5.8 8.557l.994-.931zM5.53 6.442l-.993.932-3.234-3.031.993-.933L5.53 6.442zm4.671 0l-.994.932L5.8 4.179l.994-.932 3.408 3.195zm1.262 1.184l3.234 3.032-.994.931-3.233-3.032.993-.931z"/>
        <path fill="#FFF" d="M22.143 5.145c-.148-.432-.283-.713-.455-.83-.135-.081-.381-.105-.492-.105-.123 0-.196-.01-.196-.105 0-.082.097-.105.27-.105.639 0 1.315.035 1.426.035.112 0 .652-.035 1.366-.035.172 0 .258.035.258.105 0 .094-.099.105-.222.105-.098 0-.221 0-.307.047-.11.047-.136.13-.136.257 0 .153.124.55.271 1.076.209.77 1.353 4.313 1.574 4.967l2.423-6.101c.123-.327.21-.421.307-.421.136 0 .197.175.357.55l2.558 5.89c.258-.783 1.242-3.868 1.673-5.236.085-.268.123-.514.123-.678 0-.187-.111-.35-.59-.35-.124 0-.21-.036-.21-.106 0-.082.099-.105.283-.105.651 0 1.169.035 1.28.035.086 0 .614-.035 1.02-.035.135 0 .221.023.221.094 0 .08-.062.116-.172.116-.124 0-.295.012-.43.06-.296.104-.431.571-.69 1.238-.565 1.472-1.856 5.19-2.458 6.943-.136.409-.197.549-.357.549-.124 0-.197-.14-.382-.573l-2.558-5.868c-.257.597-1.893 4.746-2.422 5.821-.234.48-.296.62-.443.62-.124 0-.172-.129-.283-.433l-2.607-7.422zM37.816 7.39c0-1.776 0-2.104-.025-2.477-.025-.398-.123-.584-.529-.666a2.631 2.631 0 0 0-.48-.035c-.134 0-.209-.024-.209-.105 0-.082.087-.106.271-.106.652 0 1.427.034 1.684.034.419 0 1.354-.034 1.735-.034.774 0 1.599.07 2.263.503.344.222.836.817.836 1.601 0 .866-.38 1.66-1.624 2.618 1.096 1.309 1.944 2.35 2.67 3.074.688.678 1.192.76 1.376.796.136.023.247.034.345.034.098 0 .148.035.148.093 0 .094-.086.118-.233.118h-1.169c-.689 0-.996-.06-1.316-.222-.529-.27-.996-.82-1.684-1.718-.494-.644-1.058-1.438-1.219-1.614-.061-.07-.134-.081-.22-.081l-1.071-.023c-.061 0-.098.023-.098.092v.164c0 1.087 0 2.01.06 2.5.038.34.112.598.48.644.185.023.456.047.603.047.099 0 .149.035.149.093 0 .082-.087.118-.247.118-.713 0-1.623-.036-1.808-.036-.233 0-1.008.036-1.5.036-.16 0-.246-.036-.246-.118 0-.058.05-.093.197-.093.184 0 .332-.024.442-.047.247-.046.308-.304.357-.643.062-.49.062-1.414.062-2.49V7.39zm1.45.924c0 .129.025.175.111.21.258.082.628.117.935.117.492 0 .652-.047.873-.198.37-.257.726-.795.726-1.754 0-1.66-1.156-2.139-1.882-2.139-.308 0-.529.012-.652.047-.086.024-.11.07-.11.164v3.553zm9.844-.924c0-1.777 0-2.104-.024-2.477-.026-.398-.148-.596-.418-.655a1.875 1.875 0 0 0-.444-.047c-.123 0-.196-.023-.196-.116 0-.07.098-.094.295-.094.467 0 1.242.035 1.599.035.307 0 1.033-.035 1.5-.035.16 0 .258.024.258.094 0 .093-.074.116-.197.116-.122 0-.221.012-.369.036-.332.058-.43.257-.454.666-.025.373-.025.7-.025 2.477v2.058c0 1.133 0 2.057.049 2.56.037.315.123.526.492.572.172.023.443.046.626.046.137 0 .198.036.198.095 0 .082-.098.117-.234.117-.811 0-1.587-.035-1.918-.035-.283 0-1.058.035-1.55.035-.16 0-.246-.035-.246-.117 0-.06.049-.095.196-.095.186 0 .333-.023.444-.046.246-.046.32-.245.357-.584.061-.49.061-1.415.061-2.548V7.389z"/>
    </g>
</svg>
