<svg version="1" xmlns="http://www.w3.org/2000/svg" width="682.667" height="682.667" viewBox="0 0 512.000000 512.000000"><path d="M244.7 18.6c-.1.1-3.6.5-7.9.8-4.2.3-9.3.8-11.5 1.1-2.1.3-5.2.8-7 1-7.5 1.1-23.1 4.9-33.5 8.2C135.7 45.2 93.6 76 63.3 118.6 57.6 126.5 43 151 43 152.5c0 .2-1.4 3.4-3.1 7.1-3.4 7.3-12.5 34.1-13.4 39.5-.3 1.9-1 5-1.5 6.9-5.1 20.2-6.1 62.8-2.1 87 3.4 20.1 10.8 44.2 19.1 61.7 4.9 10.3 14.3 27 18.9 33.3 13.6 18.9 21.2 27.6 36.7 42 18.8 17.4 32.8 24.8 52.3 27.6 1.4.2 13.2.4 26.2.4 25.1 0 28.4-.4 35.2-5.2 10.5-7.3 14.3-17.5 12.4-33.3-.5-3.3-1-8-1.3-10.5-.3-2.5-.7-5.6-.9-7-.2-1.4-.7-4.3-.9-6.5-1-7.6-2.5-20-3.1-25-.6-5-1-8-1.9-14.5-.3-1.9-.8-6-1.1-9-.3-3-1-8.1-1.4-11.3l-.8-5.9 4.7-3.6c2.5-2.1 8.8-6.9 13.8-10.7l9.2-7-4.2-1.9c-4.6-2-4.9-2.2-14.9-6-3.6-1.4-13-5-20.8-8.1-11.7-4.5-28.2-9.3-41.5-11.9-1.1-.3-10.2-2.3-20.1-4.6-9.9-2.3-18.7-4.3-19.6-4.5-.9-.2-3.4-.8-5.5-1.4-3.4-.9-4.4-.7-10.3 2.2-5.8 2.8-7.5 3.2-15.1 3.2-7.1 0-9.4-.4-14.2-2.7-7.9-3.7-14.2-9.8-18-17.5-2.8-5.8-3.2-7.5-3.1-14.8 0-7.1.4-9.1 3.1-14.6 1.7-3.5 3.9-7.3 4.9-8.5 3.9-4.4 11.6-9.4 16.8-10.9 5.2-1.5 5.4-1.7 6-5.8 1.1-6.8 7.8-19.7 13.1-25.1 10.8-11 23.9-16.5 38.6-16.3l8.7.2.5-2.8c.8-3.9 6.5-12.5 11.7-17.5 4.6-4.4 16.2-10.8 21.4-11.7 5.9-1 16.6-.6 21.8.9 10 2.9 21.4 11.4 26.4 19.7 1.4 2.4 1.9 2.6 5 1.7 7.5-2.1 17.3-1.5 27 1.6 1.9.6 2.6-.2 5.7-6.6 11.9-24.4 35.4-39.3 62.6-39.7 35.9-.6 66.9 26.8 70.6 62.4.6 5.6.7 5.9 3.7 6.1 10 .6 20.2 4.8 28.3 11.6 8 6.7 14.6 18.2 15.9 27.4 1.3 9.2 1.4 9.8 3.1 10.7 4.1 2.3 9.4 8.2 12.5 13.9 3.2 5.9 3.4 6.9 3.4 15.8 0 8.4-.4 10.1-2.9 15.2-9.8 19.5-34.2 26.2-51.4 13.9-1.6-1.1-3.9-1.7-5.7-1.6-3.7.5-12.5 1.6-14.5 2-.8.2-3.7.6-6.5.9-2.7.4-6.1.8-7.5 1.1-1.4.2-4.7.7-7.5 1-2.7.3-7.7 1-11 1.5s-7.8 1.1-10 1.4c-2.2.3-8.9 1.3-15 2.1-11.9 1.7-15.7 2.3-20.7 2.9-17.3 2.2-28.6 3.7-29.8 4.1-.8.2-3.6.6-6.3 1-4.2.5-7.1 2.3-27 17.6-12.2 9.4-22.3 17.6-22.5 18.3-.1.6 5.4 17.8 12.3 38.1 6.9 20.4 14.2 41.7 16.1 47.3 1.9 5.7 4.3 12.1 5.4 14.2 2.9 5.7 11.5 14.6 17.3 17.9 10.4 5.9 13.3 6.2 50.2 6.2 40.9 0 46.2-.8 63.3-9.4 8.3-4.2 22-15.5 35-28.7 17-17.4 32.2-39 43.2-61.5 6.2-12.7 14.5-34.2 15.6-40.5.3-1.4 1.1-4.8 1.9-7.5 4.1-14.6 6-32.1 6-55.5 0-26.4-1.8-40.5-8-63.5-9.1-33.6-28.1-69-50-93.1-38.4-42.2-85.7-68.3-139.5-76.8-1.9-.3-4.6-.8-5.9-1.1-5.2-1-42.5-2.7-43.4-1.9z"/><path d="M196.7 216.7c-.3.3-5.7 1.1-8.3 1.2-.6.1-1.4 2-1.8 4.2-.4 2.3-1.6 6.5-2.8 9.3-2.4 5.8-10.3 17.5-12.3 18.2-2 .8-2.6 3.2-1.1 4.6.7.7 4.5 5.1 8.5 9.8 4.1 4.7 7.6 8.3 8 8.1.8-.5 27.1-37 27.1-37.6 0-.3-2.4-3-5.4-6-3-2.9-6.2-6.9-7-8.7-1.4-2.9-3.7-4.4-4.9-3.1zM220.5 244.6c-2.2 3.1-4.8 6.6-5.7 7.9-5.7 7.5-18.1 25-18.5 26.2-.3.7 0 1.3.7 1.3s2.6.6 4.3 1.4c1.8.8 9.3 3.7 16.7 6.6 7.4 2.8 14.4 5.5 15.5 5.9 9.9 4.1 15.2 6.1 16.3 6.1 1 0 37.5-27.3 42.1-31.5 1.1-1.1.3-1.6-4.5-3-11.5-3.3-20.5-9.8-26.6-19.2-2.8-4.2-4.7-6.2-5.8-5.9-2.6.8-9.3 1.9-12.5 2.1-3.1.1-13.9-1.7-16.5-2.9-1.1-.4-2.7 1-5.5 5zM348 242.5c-1.9.7-4.5 1.4-5.6 1.4-1.2.1-3.3 1.6-4.9 3.6-4.8 6.4-10.6 11.3-17.1 14.5-5.2 2.6-28.6 19.5-30.4 22-.3.4-1.2 1-2 1.3-.8.4 1.2.4 4.5.1 3.2-.3 6.2-.7 6.5-.9.3-.1 3.2-.6 6.5-.9 3.3-.4 6.7-.9 7.5-1.1.8-.2 3.8-.7 6.5-1 10.4-1.1 10.4-1.1 25.1-15.7l14.1-14-3.1-5.4c-1.7-2.9-3.3-5.3-3.6-5.3-.3 0-2.1.7-4 1.4zM153.7 260.7c-3.2 1.3-8.2 2.7-11 3-4.9.6-5 .7-2.2 1.5 1.7.4 3.9 1 5 1.3 1.1.2 2.9.6 4 .9 12.2 2.8 20.8 4.6 21.1 4.3.3-.3-8.3-10.8-10.5-12.8-.3-.3-3.2.5-6.4 1.8zM357 268.6l-8.5 8.6 6-.7c3.3-.3 6.7-.8 7.5-1 .8-.2 3.8-.7 6.5-1 9.1-1.2 10.9-1.5 19-2.7l8-1.2-4.7-.7c-7-1.1-13.9-3.6-19.2-6.9-2.6-1.7-5-3-5.4-3-.4 0-4.6 3.9-9.2 8.6z"/></svg>